<svg xmlns="http://www.w3.org/2000/svg" xmlns:xlink="http://www.w3.org/1999/xlink" version="1.1" x="0px" y="0px" viewBox="-16 -0.104 100 125" enable-background="new -16 -0.104 100 100" xml:space="preserve"><path fill="#000000" d="M56.006,57.493c6.714-6.034,10.938-14.786,10.938-24.521C66.944,14.762,52.184,0,33.973,0  C15.764,0,1.002,14.762,1.002,32.972c0,9.735,4.224,18.487,10.939,24.521L0,90.302l17.007-5.624l9.351,15.219l7.615-20.923  l7.614,20.923l9.351-15.219l17.009,5.624L56.006,57.493z M33.973,62.374c-16.238,0-29.402-13.165-29.402-29.402  c0-16.241,13.164-29.405,29.402-29.405c16.24,0,29.403,13.165,29.403,29.405C63.376,49.209,50.213,62.374,33.973,62.374z"/><path fill="#000000" d="M33.973,6.52c-14.573,0-26.389,11.815-26.389,26.391c0,14.571,11.816,26.388,26.389,26.388  c14.575,0,26.39-11.817,26.39-26.388C60.362,18.335,48.548,6.52,33.973,6.52z M29.2,46.561l-5.122-2.741l-5.16,2.665l1.024-5.717  l-4.129-4.086l5.753-0.793l2.608-5.188l2.534,5.227l5.742,0.877l-4.19,4.022L29.2,46.561z M33.921,26.596l-5.162,2.665l1.025-5.718  l-4.129-4.084l5.753-0.792l2.61-5.189l2.531,5.229l5.742,0.877l-4.189,4.024l0.941,5.729L33.921,26.596z M48.885,46.561  l-5.122-2.741l-5.161,2.665l1.023-5.717l-4.129-4.086l5.754-0.793l2.61-5.188l2.532,5.227l5.741,0.877l-4.189,4.022L48.885,46.561z"/><text x="-16" y="114.896" fill="#000000" font-size="5px" font-weight="bold" font-family="'Helvetica Neue', Helvetica, Arial-Unicode, Arial, Sans-serif">Created by Luc Poupard</text><text x="-16" y="119.896" fill="#000000" font-size="5px" font-weight="bold" font-family="'Helvetica Neue', Helvetica, Arial-Unicode, Arial, Sans-serif">from the Noun Project</text></svg>